<mxfile host="app.diagrams.net" agent="Mozilla/5.0 (Windows NT 10.0; Win64; x64) AppleWebKit/537.36 (KHTML, like Gecko) Chrome/133.0.0.0 Safari/537.36" version="26.1.0">
  <diagram name="Page-1" id="l5UKN5PUahaKfh30N0-V">
    <mxGraphModel dx="2140" dy="557" grid="1" gridSize="10" guides="1" tooltips="1" connect="1" arrows="1" fold="1" page="1" pageScale="1" pageWidth="850" pageHeight="1100" math="0" shadow="0">
      <root>
        <mxCell id="0" />
        <mxCell id="1" parent="0" />
        <mxCell id="pscXRYksrdRReSjbx59k-6" style="edgeStyle=orthogonalEdgeStyle;rounded=0;orthogonalLoop=1;jettySize=auto;html=1;" parent="1" source="pscXRYksrdRReSjbx59k-1" target="pscXRYksrdRReSjbx59k-2" edge="1">
          <mxGeometry relative="1" as="geometry" />
        </mxCell>
        <mxCell id="pscXRYksrdRReSjbx59k-1" value="&lt;div&gt;&lt;span style=&quot;font-size: 14px;&quot;&gt;&lt;b&gt;Initial Requirement&lt;/b&gt;&lt;/span&gt;&lt;/div&gt;" style="rounded=1;whiteSpace=wrap;html=1;fillColor=#CCFFFF;" parent="1" vertex="1">
          <mxGeometry x="110" y="220" width="120" height="60" as="geometry" />
        </mxCell>
        <mxCell id="pscXRYksrdRReSjbx59k-14" style="edgeStyle=orthogonalEdgeStyle;rounded=0;orthogonalLoop=1;jettySize=auto;html=1;entryX=0;entryY=0.5;entryDx=0;entryDy=0;" parent="1" source="pscXRYksrdRReSjbx59k-2" target="pscXRYksrdRReSjbx59k-3" edge="1">
          <mxGeometry relative="1" as="geometry">
            <Array as="points">
              <mxPoint x="330" y="170" />
            </Array>
          </mxGeometry>
        </mxCell>
        <mxCell id="pscXRYksrdRReSjbx59k-2" value="&lt;font style=&quot;font-size: 14px;&quot;&gt;&lt;b&gt;Design&lt;/b&gt;&lt;/font&gt;" style="rounded=1;whiteSpace=wrap;html=1;fillColor=#CCFFFF;" parent="1" vertex="1">
          <mxGeometry x="270" y="220" width="120" height="60" as="geometry" />
        </mxCell>
        <mxCell id="pscXRYksrdRReSjbx59k-9" style="edgeStyle=orthogonalEdgeStyle;rounded=0;orthogonalLoop=1;jettySize=auto;html=1;entryX=0.5;entryY=0;entryDx=0;entryDy=0;" parent="1" source="pscXRYksrdRReSjbx59k-3" target="pscXRYksrdRReSjbx59k-4" edge="1">
          <mxGeometry relative="1" as="geometry" />
        </mxCell>
        <mxCell id="pscXRYksrdRReSjbx59k-3" value="&lt;font style=&quot;font-size: 14px;&quot;&gt;&lt;b&gt;Prototyping&lt;/b&gt;&lt;/font&gt;" style="rounded=1;whiteSpace=wrap;html=1;fillColor=#CCFFFF;" parent="1" vertex="1">
          <mxGeometry x="440" y="140" width="120" height="60" as="geometry" />
        </mxCell>
        <mxCell id="pscXRYksrdRReSjbx59k-15" style="edgeStyle=orthogonalEdgeStyle;rounded=0;orthogonalLoop=1;jettySize=auto;html=1;entryX=1;entryY=0.5;entryDx=0;entryDy=0;" parent="1" source="pscXRYksrdRReSjbx59k-4" target="pscXRYksrdRReSjbx59k-5" edge="1">
          <mxGeometry relative="1" as="geometry">
            <Array as="points">
              <mxPoint x="650" y="310" />
            </Array>
          </mxGeometry>
        </mxCell>
        <mxCell id="aA9NR5yYWYw1Pl3XBAxw-5" value="" style="edgeStyle=orthogonalEdgeStyle;rounded=0;orthogonalLoop=1;jettySize=auto;html=1;" parent="1" source="pscXRYksrdRReSjbx59k-4" target="aA9NR5yYWYw1Pl3XBAxw-3" edge="1">
          <mxGeometry relative="1" as="geometry" />
        </mxCell>
        <mxCell id="pscXRYksrdRReSjbx59k-4" value="&lt;div&gt;&lt;font style=&quot;font-size: 14px;&quot;&gt;&lt;b&gt;User Evaluation&lt;/b&gt;&lt;/font&gt;&lt;/div&gt;" style="rounded=1;whiteSpace=wrap;html=1;fillColor=#CCFFFF;" parent="1" vertex="1">
          <mxGeometry x="591" y="220" width="120" height="60" as="geometry" />
        </mxCell>
        <mxCell id="pscXRYksrdRReSjbx59k-16" style="edgeStyle=orthogonalEdgeStyle;rounded=0;orthogonalLoop=1;jettySize=auto;html=1;entryX=0.5;entryY=1;entryDx=0;entryDy=0;" parent="1" source="pscXRYksrdRReSjbx59k-5" target="pscXRYksrdRReSjbx59k-2" edge="1">
          <mxGeometry relative="1" as="geometry" />
        </mxCell>
        <mxCell id="pscXRYksrdRReSjbx59k-5" value="&lt;font style=&quot;font-size: 14px;&quot;&gt;&lt;b&gt;Review and Update&lt;/b&gt;&lt;/font&gt;" style="rounded=1;whiteSpace=wrap;html=1;fillColor=#CCFFFF;" parent="1" vertex="1">
          <mxGeometry x="440" y="280" width="120" height="60" as="geometry" />
        </mxCell>
        <mxCell id="pscXRYksrdRReSjbx59k-21" style="edgeStyle=orthogonalEdgeStyle;rounded=0;orthogonalLoop=1;jettySize=auto;html=1;" parent="1" source="pscXRYksrdRReSjbx59k-17" target="pscXRYksrdRReSjbx59k-19" edge="1">
          <mxGeometry relative="1" as="geometry" />
        </mxCell>
        <mxCell id="pscXRYksrdRReSjbx59k-17" value="&lt;b&gt;&lt;font style=&quot;font-size: 14px;&quot;&gt;Development&lt;/font&gt;&lt;/b&gt;" style="rounded=1;whiteSpace=wrap;html=1;fillColor=#CCFFFF;" parent="1" vertex="1">
          <mxGeometry x="720" y="380" width="120" height="60" as="geometry" />
        </mxCell>
        <mxCell id="pscXRYksrdRReSjbx59k-22" style="edgeStyle=orthogonalEdgeStyle;rounded=0;orthogonalLoop=1;jettySize=auto;html=1;" parent="1" source="pscXRYksrdRReSjbx59k-19" target="pscXRYksrdRReSjbx59k-20" edge="1">
          <mxGeometry relative="1" as="geometry" />
        </mxCell>
        <mxCell id="pscXRYksrdRReSjbx59k-19" value="&lt;b&gt;&lt;font style=&quot;font-size: 14px;&quot;&gt;Testing&lt;/font&gt;&lt;/b&gt;" style="rounded=1;whiteSpace=wrap;html=1;fillColor=#CCFFFF;" parent="1" vertex="1">
          <mxGeometry x="520" y="380" width="120" height="60" as="geometry" />
        </mxCell>
        <mxCell id="pscXRYksrdRReSjbx59k-20" value="&lt;b&gt;&lt;font style=&quot;font-size: 14px;&quot;&gt;Maintenance&lt;/font&gt;&lt;/b&gt;" style="rounded=1;whiteSpace=wrap;html=1;fillColor=#CCFFFF;" parent="1" vertex="1">
          <mxGeometry x="330" y="380" width="120" height="60" as="geometry" />
        </mxCell>
        <mxCell id="aA9NR5yYWYw1Pl3XBAxw-6" style="edgeStyle=orthogonalEdgeStyle;rounded=0;orthogonalLoop=1;jettySize=auto;html=1;entryX=0.5;entryY=0;entryDx=0;entryDy=0;" parent="1" source="aA9NR5yYWYw1Pl3XBAxw-3" target="pscXRYksrdRReSjbx59k-17" edge="1">
          <mxGeometry relative="1" as="geometry" />
        </mxCell>
        <mxCell id="aA9NR5yYWYw1Pl3XBAxw-7" value="User Approval" style="edgeLabel;html=1;align=center;verticalAlign=middle;resizable=0;points=[];" parent="aA9NR5yYWYw1Pl3XBAxw-6" vertex="1" connectable="0">
          <mxGeometry x="0.0476" y="3" relative="1" as="geometry">
            <mxPoint y="-119" as="offset" />
          </mxGeometry>
        </mxCell>
        <mxCell id="aA9NR5yYWYw1Pl3XBAxw-3" value="" style="ellipse;whiteSpace=wrap;html=1;aspect=fixed;" parent="1" vertex="1">
          <mxGeometry x="755" y="225" width="50" height="50" as="geometry" />
        </mxCell>
        <mxCell id="TrAdvi8D6_BEf9eVTaed-4" value="" style="endArrow=none;dashed=1;html=1;dashPattern=1 3;strokeWidth=2;rounded=0;exitX=0.923;exitY=0.271;exitDx=0;exitDy=0;exitPerimeter=0;" edge="1" parent="1" source="TrAdvi8D6_BEf9eVTaed-6">
          <mxGeometry width="50" height="50" relative="1" as="geometry">
            <mxPoint x="94.80547827830742" y="331.02485402543425" as="sourcePoint" />
            <mxPoint x="170" y="280" as="targetPoint" />
          </mxGeometry>
        </mxCell>
        <mxCell id="TrAdvi8D6_BEf9eVTaed-6" value="Wawancara,&amp;nbsp;&lt;div&gt;Kebutuhan Fungsional&amp;nbsp;&lt;span style=&quot;background-color: transparent; color: light-dark(rgb(0, 0, 0), rgb(255, 255, 255));&quot;&gt;dan Kebutuhan Non Fungsional&lt;/span&gt;&lt;/div&gt;" style="ellipse;whiteSpace=wrap;html=1;" vertex="1" parent="1">
          <mxGeometry x="-90" y="310" width="230" height="45" as="geometry" />
        </mxCell>
        <mxCell id="TrAdvi8D6_BEf9eVTaed-7" value="&lt;div&gt;&lt;span style=&quot;background-color: transparent; color: light-dark(rgb(0, 0, 0), rgb(255, 255, 255));&quot;&gt;Use Case Diagram, Use Case Scenario, dan Proses Bisnis&lt;/span&gt;&lt;/div&gt;" style="ellipse;whiteSpace=wrap;html=1;" vertex="1" parent="1">
          <mxGeometry x="55" y="120" width="230" height="45" as="geometry" />
        </mxCell>
        <mxCell id="TrAdvi8D6_BEf9eVTaed-8" value="" style="endArrow=none;dashed=1;html=1;dashPattern=1 3;strokeWidth=2;rounded=0;exitX=0.183;exitY=0.017;exitDx=0;exitDy=0;exitPerimeter=0;entryX=0.694;entryY=0.902;entryDx=0;entryDy=0;entryPerimeter=0;" edge="1" parent="1" source="pscXRYksrdRReSjbx59k-2" target="TrAdvi8D6_BEf9eVTaed-7">
          <mxGeometry width="50" height="50" relative="1" as="geometry">
            <mxPoint x="270" y="182" as="sourcePoint" />
            <mxPoint x="318" y="140" as="targetPoint" />
          </mxGeometry>
        </mxCell>
        <mxCell id="TrAdvi8D6_BEf9eVTaed-9" value="Desain Antarmuka" style="ellipse;whiteSpace=wrap;html=1;" vertex="1" parent="1">
          <mxGeometry x="420" y="60" width="140" height="35" as="geometry" />
        </mxCell>
        <mxCell id="TrAdvi8D6_BEf9eVTaed-11" value="" style="endArrow=none;dashed=1;html=1;dashPattern=1 3;strokeWidth=2;rounded=0;exitX=0.5;exitY=0;exitDx=0;exitDy=0;entryX=0.5;entryY=1;entryDx=0;entryDy=0;" edge="1" parent="1" source="pscXRYksrdRReSjbx59k-3" target="TrAdvi8D6_BEf9eVTaed-9">
          <mxGeometry width="50" height="50" relative="1" as="geometry">
            <mxPoint x="497" y="150" as="sourcePoint" />
            <mxPoint x="420" y="90" as="targetPoint" />
          </mxGeometry>
        </mxCell>
        <mxCell id="TrAdvi8D6_BEf9eVTaed-12" value="Umpan Balik User" style="ellipse;whiteSpace=wrap;html=1;" vertex="1" parent="1">
          <mxGeometry x="690" y="105" width="140" height="35" as="geometry" />
        </mxCell>
        <mxCell id="TrAdvi8D6_BEf9eVTaed-13" value="" style="endArrow=none;dashed=1;html=1;dashPattern=1 3;strokeWidth=2;rounded=0;exitX=0.75;exitY=0;exitDx=0;exitDy=0;" edge="1" parent="1" source="pscXRYksrdRReSjbx59k-4" target="TrAdvi8D6_BEf9eVTaed-12">
          <mxGeometry width="50" height="50" relative="1" as="geometry">
            <mxPoint x="690" y="200" as="sourcePoint" />
            <mxPoint x="680" y="155" as="targetPoint" />
          </mxGeometry>
        </mxCell>
        <mxCell id="TrAdvi8D6_BEf9eVTaed-14" value="Hasil Revisi dari tahap Prototyping" style="ellipse;whiteSpace=wrap;html=1;" vertex="1" parent="1">
          <mxGeometry x="175" y="340" width="215" height="30" as="geometry" />
        </mxCell>
        <mxCell id="TrAdvi8D6_BEf9eVTaed-15" value="" style="endArrow=none;dashed=1;html=1;dashPattern=1 3;strokeWidth=2;rounded=0;exitX=0.5;exitY=1;exitDx=0;exitDy=0;" edge="1" parent="1" source="pscXRYksrdRReSjbx59k-5" target="TrAdvi8D6_BEf9eVTaed-14">
          <mxGeometry width="50" height="50" relative="1" as="geometry">
            <mxPoint x="691" y="230" as="sourcePoint" />
            <mxPoint x="756" y="150" as="targetPoint" />
          </mxGeometry>
        </mxCell>
        <mxCell id="TrAdvi8D6_BEf9eVTaed-16" value="Membuat sistem berbasis website dan mobile" style="ellipse;whiteSpace=wrap;html=1;" vertex="1" parent="1">
          <mxGeometry x="800" y="480" width="170" height="50" as="geometry" />
        </mxCell>
        <mxCell id="TrAdvi8D6_BEf9eVTaed-17" value="" style="endArrow=none;dashed=1;html=1;dashPattern=1 3;strokeWidth=2;rounded=0;exitX=0.5;exitY=0;exitDx=0;exitDy=0;entryX=0.5;entryY=1;entryDx=0;entryDy=0;" edge="1" parent="1" source="TrAdvi8D6_BEf9eVTaed-16" target="pscXRYksrdRReSjbx59k-17">
          <mxGeometry width="50" height="50" relative="1" as="geometry">
            <mxPoint x="691" y="230" as="sourcePoint" />
            <mxPoint x="756" y="150" as="targetPoint" />
          </mxGeometry>
        </mxCell>
        <mxCell id="TrAdvi8D6_BEf9eVTaed-19" value="Pengujian dengan Fungsional Testing dan Non Fungsional Testing" style="ellipse;whiteSpace=wrap;html=1;" vertex="1" parent="1">
          <mxGeometry x="461" y="470" width="250" height="50" as="geometry" />
        </mxCell>
        <mxCell id="TrAdvi8D6_BEf9eVTaed-20" value="" style="endArrow=none;dashed=1;html=1;dashPattern=1 3;strokeWidth=2;rounded=0;exitX=0.5;exitY=0;exitDx=0;exitDy=0;entryX=0.5;entryY=1;entryDx=0;entryDy=0;" edge="1" parent="1" source="TrAdvi8D6_BEf9eVTaed-19" target="pscXRYksrdRReSjbx59k-19">
          <mxGeometry width="50" height="50" relative="1" as="geometry">
            <mxPoint x="895" y="490" as="sourcePoint" />
            <mxPoint x="790" y="450" as="targetPoint" />
          </mxGeometry>
        </mxCell>
        <mxCell id="TrAdvi8D6_BEf9eVTaed-21" value="melakukan perbaikan sistem secara bertahap" style="ellipse;whiteSpace=wrap;html=1;" vertex="1" parent="1">
          <mxGeometry x="130" y="480" width="260" height="40" as="geometry" />
        </mxCell>
        <mxCell id="TrAdvi8D6_BEf9eVTaed-22" value="" style="endArrow=none;dashed=1;html=1;dashPattern=1 3;strokeWidth=2;rounded=0;exitX=0.5;exitY=1;exitDx=0;exitDy=0;entryX=0.5;entryY=0;entryDx=0;entryDy=0;" edge="1" parent="1" source="pscXRYksrdRReSjbx59k-20" target="TrAdvi8D6_BEf9eVTaed-21">
          <mxGeometry width="50" height="50" relative="1" as="geometry">
            <mxPoint x="335" y="490" as="sourcePoint" />
            <mxPoint x="230" y="450" as="targetPoint" />
          </mxGeometry>
        </mxCell>
      </root>
    </mxGraphModel>
  </diagram>
</mxfile>
